<svg role="img" viewBox="0 0 24 24" xmlns="http://www.w3.org/2000/svg" id="Bookmyshow--Streamline-Simple-Icons" height="24" width="24">
  <desc>
    Bookmyshow Streamline Icon: https://streamlinehq.com
  </desc>
  <title>BookMyShow</title>
  <path d="M5.338 16.595a0.66 0.66 0 0 1 -0.554 -0.66v-8.07a0.67 0.67 0 0 1 0.679 -0.672h5.901c0.154 0 0.308 0.015 0.458 0.04a2.622 2.622 0 0 1 2.19 2.576v6.126a0.66 0.66 0 0 1 -0.204 0.478 0.684 0.684 0 0 1 -0.6 0.182 0.66 0.66 0 0 1 -0.553 -0.66V9.809a1.277 1.277 0 0 0 -1.29 -1.272h-1.287v7.398a0.678 0.678 0 0 1 -0.806 0.66 0.66 0.66 0 0 1 -0.553 -0.66v-7.4H6.142v7.4a0.66 0.66 0 0 1 -0.202 0.478 0.682 0.682 0 0 1 -0.602 0.182m9.812 3.517a0.66 0.66 0 0 1 -0.555 -0.662c0 -0.183 0.07 -0.353 0.196 -0.478a0.684 0.684 0 0 1 0.484 -0.193c0.572 0 1.068 -0.365 1.232 -0.909l0.701 -2.307 -2.294 -7.576a0.677 0.677 0 0 1 0.453 -0.847 0.695 0.695 0 0 1 0.84 0.444l1.705 5.65 1.724 -5.647c0.085 -0.318 0.43 -0.52 0.786 -0.459l0.048 0.01a0.68 0.68 0 0 1 0.458 0.85l-2.362 7.774 -0.746 2.489c-0.193 0.571 -0.525 1.036 -0.957 1.349a2.678 2.678 0 0 1 -1.588 0.522 0.664 0.664 0 0 1 -0.125 -0.011M24 7.172l-1.353 -2.277 -2.421 1.137 -1.353 -2.278 -2.42 1.138 -1.354 -2.277 -2.42 1.138 -1.354 -2.277 -2.42 1.136L7.55 0.335 5.132 1.47 0 17.957l6.226 1.88a3.295 3.295 0 0 1 3.151 -2.297c1.822 0 3.3 1.46 3.3 3.26l-0.002 0.065c0.015 0.295 -0.02 0.594 -0.11 0.887l6.331 1.914L24 7.17" fill="#000000" stroke-width="1"></path>
</svg>